#!OML:ASF E:/inclinewalkrobotboard/Project1/Captureday1/Session1/subject1.ASF
:FULLY-SPECIFIED
:DEGREES
176
root 0 0 0 -2.0467282298230187 -5.215321827066479 -6.589134200647091
lowerback 11.61709688487002 1.9088630325104678 5.9844099580247585
upperback 0.6580920435028336 3.3817682121646655 2.04176939917431
thorax -5.601587382317764 1.5447267725874325 -1.7311872760376015
lowerneck -17.135583358901364 -3.6350822486581222 -1.528104597625546
upperneck 19.481149673440477 -4.6861895620966285 0.51568742204008
head 9.059044940131555 -2.2603680206298753 -0.16896313552248388
rclavicle 1.095549700917304E-15 -2.4142753914929058E-15
rhumerus -28.447455403901138 -18.89694897331088 -77.29218630186122
rradius 29.13172621462463
rwrist 0.6625044418796824
rhand -19.291565353319086 24.278611915505525
rfingers 7.125020000000017
rthumb 7.027593119422857 -5.648337957981102
lclavicle -2.8021392008064406E-15 -2.305266730661744E-15
lhumerus -35.83446974111627 0.5362040033083703 84.30900036958812
lradius 26.580733708573952
lwrist 5.6582071952043
lhand -27.15851814329136 24.1566248739917
lfingers 7.125020000000018
lthumb -0.5654862014871176 54.15992143419868
rfemur 11.92065710994937 7.582040053819421 34.822917119699405
rtibia 30.903419098581715
rfoot -17.815312833565194 -3.6015470296867065
rtoes -5.1825334994604155
lfemur -25.621709331275504 -4.213432729242859 -12.2607604323721
ltibia 21.169185481015283
lfoot -5.349494595263598 3.708119421667728
ltoes -1.27768481531999
177
root 0 0 0 -2.1493062753936396 -5.183699658119794 -5.925836629979734
lowerback 11.412211900353146 1.9811197516107857 5.327420438963236
upperback 0.528397974304242 3.38516679601309 1.795576152935037
thorax -5.635779847411722 1.558607118349912 -1.6184792235642953
lowerneck -16.718613784999903 -3.6431981048635933 -1.4185485199337649
upperneck 19.579650693200357 -4.7653381976291405 0.6856681157020725
head 9.05102734898211 -2.2696391900353774 -0.13223735508520817
rclavicle 7.887677814618793E-16 -2.1813523857477914E-15
rhumerus -29.05671531162279 -20.07073376096098 -76.83427869095846
rradius 28.576134034763008
rwrist 1.0855164516282558
rhand -19.253408309038676 23.939522479900184
rfingers 7.125020000000018
rthumb 7.064343940483954 -5.99316937374838
lclavicle -3.026520988975601E-15 -2.3042327290728367E-15
lhumerus -36.0737262230021 1.419295177246938 83.89293355178552
lradius 25.765669583754935
lwrist 5.168982121522754
lhand -26.991470592689275 24.436838176643853
lfingers 7.125020000000019
lthumb -0.4044319833506682 54.4452041978013
rfemur 7.258092317346985 5.324381688166227 30.12781441947039
rtibia 38.014960700014676
rfoot -9.983444618630251 -1.4790232985971143
rtoes -3.9200139007056505
lfemur -23.95782617395518 -3.5128953551209516 -14.89308506102126
ltibia 23.455463419550526
lfoot -4.886977600356001 1.710244617156333
ltoes 1.5212506569534732
178
root 0 0 0 -2.278899857416046 -5.191473862893212 -4.340283187964008
lowerback 10.892294051867465 2.1118643485310242 3.9080109329013766
upperback 0.3732900964595291 3.3520945165638176 1.2806858158694514
thorax -5.532170259737434 1.571641493191714 -1.3493261226554063
lowerneck -16.13772144441262 -3.5821291151594714 -1.3156612524354814
upperneck 20.058447023122774 -4.767422692704323 0.929671461523603
head 9.139530469488484 -2.235335520115297 -0.06150732979339635
rclavicle 1.1688982294605647E-15 -2.232327327718757E-15
rhumerus -29.74076078218536 -21.212077756365787 -76.44380059801057
rradius 27.948895777178972
rwrist 1.5721330421522977
rhand -19.154477840389337 23.572419038288807
rfingers 7.12502000000002
rthumb 7.159068078001064 -6.356387690882844
lclavicle -2.656610465282913E-15 -2.634241475146884E-15
lhumerus -36.21220944215404 2.3116941932549486 83.48187865003365
lradius 24.98507237486877
lwrist 4.672325370215594
lhand -26.793923905533404 24.529298154957935
lfingers 7.1250200000000214
lthumb -0.21436943395394792 54.54229977006786
rfemur -2.3979361308732914 3.370322362387894 25.026663959213064
rtibia 53.200940137204
rfoot 6.945856123514437 -0.5657935435522536
rtoes 7.143526199046952
lfemur -20.741966018868656 -2.4561653958015195 -19.669381605674957
ltibia 27.339521010850905
lfoot -4.2773636613776755 -1.5629441578596759
ltoes 7.243343024421641
179
root 0 0 0 -4.018447432884401 -4.5409258879123175 -0.1538136725583965
lowerback 10.729586441178318 1.5846852650534116 -0.04268032435068192
upperback 0.4886890464935649 2.12930163261364 0.5686534944251251
thorax -5.4673109213966855 1.0584630526343597 0.30360727562501477
lowerneck -16.034412814694882 -3.161717312373778 -1.6204208011819314
upperneck 21.5197745394053 -4.13810566922178 0.8275449310021169
head 9.55798557213241 -1.9670491256658267 0.016625955114671742
rclavicle 1.275350962353E-15 -1.3210117455252374E-15
rhumerus -30.71416312153562 -22.4460286631195 -76.18545193279459
rradius 26.992826549394444
rwrist 2.2541160352366054
rhand -19.01803891663062 23.168740381454306
rfingers 7.125020000000021
rthumb 7.290394343604522 -6.7508436868858155
lclavicle -2.4354443218066386E-15 -1.6087629619370986E-15
lhumerus -35.74678988654402 1.788822757093745 83.47588934662409
lradius 25.408068249461834
lwrist 5.177470171635267
lhand -27.056318637017434 24.227482213874687
lfingers 7.125020000000022
lthumb -0.4647443324123204 54.23878535476284
rfemur -7.907088898031212 2.7974762594495064 28.11196354716282
rtibia 73.34758640676303
rfoot 12.918775668955416 -2.4758642775142143
rtoes 17.862691243249255
lfemur -17.127529189988262 -2.3987304847923934 -21.81148876732589
ltibia 28.628231666362147
lfoot -5.68917308373193 -1.9014933409209012
ltoes 7.498837703715701
